#!OML:ASF F:\VICON\USERDATA\INSTALL\rory3\rory3.ASF
:FULLY-SPECIFIED
:DEGREES
4299
root 2.86154 17.73 -6.17375 8.20866 -65.2692 -2.88344
lowerback 6.38341 2.95301 1.49288
upperback 2.28438 4.0065 2.12852
thorax -1.268 1.97681 1.05724
lowerneck -17.5392 -8.451 -14.4814
upperneck 24.5615 -9.75235 6.74961
head 12.0801 -4.97815 3.32989
rclavicle -1.72943e-014 1.35174e-014
rhumerus -24.1813 1.30081 -81.0875
rradius 41.2295
rwrist 14.87
rhand -21.9175 0.0725433
rfingers 7.12502
rthumb 4.48844 -29.8599
lclavicle -1.72943e-014 1.35174e-014
lhumerus -39.2065 16.4531 64.4461
lradius 41.6704
lwrist 5.97682
lhand -20.3462 29.0246
lfingers 7.12502
lthumb 6.00558 -1021.08
rfemur -15.2257 -0.237205 22.6655
rtibia 32.9292
rfoot -17.929 3.07966
rtoes 14.3636
lfemur -27.6738 -6.36121 -10.5861
ltibia 22.0973
lfoot -12.4262 6.27648
ltoes -15.2926
4300
root 2.90683 17.7418 -6.20143 7.95025 -65.2754 -2.55735
lowerback 6.37299 2.86007 1.35235
upperback 2.23059 3.87693 2.11085
thorax -1.32464 1.91238 1.12546
lowerneck -17.4071 -8.63071 -14.5814
upperneck 24.6456 -10.0751 6.95767
head 12.1457 -5.11163 3.37042
rclavicle -6.24184e-014 1.74931e-014
rhumerus -24.0473 1.64383 -81.1753
rradius 41.3872
rwrist 14.9795
rhand -21.9578 0.0865853
rfingers 7.12502
rthumb 4.44955 -29.8467
lclavicle -6.24184e-014 1.74931e-014
lhumerus -39.4475 16.6158 65.4883
lradius 41.3491
lwrist 5.91502
lhand -20.5362 28.924
lfingers 7.12502
lthumb 5.82216 -1021.18
rfemur -15.3941 -0.2398 22.5103
rtibia 32.8091
rfoot -17.6889 3.1195
rtoes 14.4981
lfemur -27.6603 -6.18436 -10.705
ltibia 22.7376
lfoot -11.79 6.10739
ltoes -15.512
4301
root 2.95767 17.7523 -6.22118 7.70979 -65.2159 -2.34756
lowerback 6.47313 2.68697 1.40156
upperback 2.20291 3.65293 2.09418
thorax -1.40206 1.80034 1.09172
lowerneck -17.2896 -8.78736 -14.6281
upperneck 24.6177 -10.3363 7.05471
head 12.1537 -5.22347 3.36982
rclavicle -3.55825e-014 1.51076e-014
rhumerus -23.8715 2.01595 -81.2704
rradius 41.5072
rwrist 15.2844
rhand -21.6958 0.253119
rfingers 7.12502
rthumb 4.70247 -29.6747
lclavicle -3.55825e-014 1.51076e-014
lhumerus -39.6551 16.959 66.442
lradius 41.0313
lwrist 5.97876
lhand -20.3692 28.6424
lfingers 7.12502
lthumb 5.98338 -1021.46
rfemur -15.4749 -0.229583 22.3781
rtibia 32.7135
rfoot -17.5277 3.12266
rtoes 14.3883
lfemur -27.5242 -6.12683 -10.7738
ltibia 23.3979
lfoot -11.1688 5.83759
ltoes -16.3644
4302
root 3.00808 17.7615 -6.23841 7.72367 -65.2623 -2.39077
lowerback 6.50921 2.57243 1.60954
upperback 2.19421 3.51362 2.04062
thorax -1.41363 1.73095 0.929602
lowerneck -17.1636 -8.95968 -14.6626
upperneck 24.5474 -10.6495 7.24847
head 12.1555 -5.34532 3.39454
rclavicle 1.74931e-014 4.37326e-014
rhumerus -23.7847 2.38985 -81.4162
rradius 41.7872
rwrist 15.4293
rhand -21.2853 0.457806
rfingers 7.12502
rthumb 5.09886 -29.4608
lclavicle 1.74931e-014 4.37326e-014
lhumerus -39.7139 17.2716 67.3606
lradius 40.6792
lwrist 6.13031
lhand -20.1797 28.7388
lfingers 7.12502
lthumb 6.16636 -1021.37
rfemur -15.5821 -0.113854 22.3116
rtibia 32.6327
rfoot -17.3212 3.35633
rtoes 15.8089
lfemur -27.3493 -6.2201 -10.6549
ltibia 24.1144
lfoot -10.7949 5.66665
ltoes -16.3951
4303
root 3.05808 17.7688 -6.25911 7.58212 -65.4169 -2.25014
lowerback 6.54487 2.52568 1.63803
upperback 2.1732 3.4544 1.98654
thorax -1.44969 1.70151 0.860441
lowerneck -17.1254 -9.11054 -14.6936
upperneck 24.6019 -10.9436 7.48791
head 12.2247 -5.45275 3.43763
rclavicle 7.35503e-015 9.54166e-015
rhumerus -23.739 2.83558 -81.524
rradius 42.0584
rwrist 15.4584
rhand -21.1804 0.465765
rfingers 7.12502
rthumb 5.20016 -29.4504
lclavicle 7.35503e-015 9.54166e-015
lhumerus -39.6889 17.5047 68.3171
lradius 40.177
lwrist 6.3335
lhand -20.3317 28.6521
lfingers 7.12502
lthumb 6.01956 -1021.45
rfemur -15.7225 -0.0200515 22.1654
rtibia 32.5611
rfoot -17.0513 3.63124
rtoes 16.7351
lfemur -27.1505 -6.25917 -10.6207
ltibia 24.926
lfoot -10.6809 5.37146
ltoes -16.6119
4304
root 3.10666 17.7753 -6.27461 7.37672 -65.624 -2.07013
lowerback 6.58304 2.4657 1.6107
upperback 2.13223 3.37533 1.95047
thorax -1.51215 1.66204 0.841741
lowerneck -17.1357 -9.21897 -14.623
upperneck 24.7268 -11.1627 7.57754
head 12.3052 -5.53511 3.42009
rclavicle 3.81667e-014 -1.11319e-014
rhumerus -23.7794 3.37321 -81.6206
rradius 42.3617
rwrist 15.5206
rhand -21.4285 0.462417
rfingers 7.12502
rthumb 4.96064 -29.4595
lclavicle 3.81667e-014 -1.11319e-014
lhumerus -39.6854 17.8452 69.2418
lradius 39.586
lwrist 6.48272
lhand -20.8325 28.2161
lfingers 7.12502
lthumb 5.53611 -1021.88
rfemur -15.8381 -0.0647644 22.0087
rtibia 32.4931
rfoot -16.8289 3.7744
rtoes 16.2426
lfemur -26.8852 -6.10159 -10.6784
ltibia 25.796
lfoot -10.7443 4.75507
ltoes -17.4395
4305
root 3.15628 17.7796 -6.2879 7.48831 -65.8384 -2.23983
lowerback 6.67403 2.4071 1.71321
upperback 2.03795 3.31009 1.94789
thorax -1.6535 1.62874 0.780354
lowerneck -16.9 -9.31837 -14.6406
upperneck 24.6359 -11.4226 7.86331
head 12.2771 -5.62566 3.49052
rclavicle -6.10269e-014 4.77083e-015
rhumerus -23.9136 3.78199 -81.7587
rradius 42.6496
rwrist 15.7315
rhand -21.7709 0.342052
rfingers 7.12502
rthumb 4.63002 -29.5874
lclavicle -6.10269e-014 4.77083e-015
lhumerus -39.79 18.1718 70.0834
lradius 39.1449
lwrist 6.48703
lhand -20.7292 28.2542
lfingers 7.12502
lthumb 5.63585 -1021.84
rfemur -15.9477 0.0222649 22.0067
rtibia 32.4229
rfoot -16.7152 3.7772
rtoes 15.3994
lfemur -26.605 -5.97395 -10.5338
ltibia 26.685
lfoot -10.9255 3.99966
ltoes -17.328
4306
root 3.2061 17.7835 -6.29803 7.39227 -65.7967 -2.21568
lowerback 6.75055 2.25702 1.79757
upperback 1.96556 3.12162 1.98332
thorax -1.76754 1.53385 0.779513
lowerneck -16.5333 -9.44202 -15.0445
upperneck 24.4033 -11.7288 8.5422
head 12.2315 -5.7295 3.76678
rclavicle 2.64384e-014 1.51076e-014
rhumerus -24.019 4.18486 -81.8262
rradius 42.9118
rwrist 15.9819
rhand -21.9432 0.134791
rfingers 7.12502
rthumb 4.46365 -29.7982
lclavicle 2.64384e-014 1.51076e-014
lhumerus -39.8626 18.5663 70.9489
lradius 38.7633
lwrist 6.38693
lhand -19.9089 28.788
lfingers 7.12502
lthumb 6.4278 -1021.33
rfemur -15.9595 0.085428 21.9256
rtibia 32.3187
rfoot -16.5859 3.80738
rtoes 15.6002
lfemur -26.3429 -6.08185 -10.4448
ltibia 27.6201
lfoot -11.0074 3.1801
ltoes -16.8617
4307
root 3.25785 17.7933 -6.29747 6.75547 -65.5915 -1.75699
lowerback 6.87503 1.99248 1.90595
upperback 1.99932 2.77879 1.97338
thorax -1.79551 1.36216 0.73257
lowerneck -16.4572 -9.51914 -15.351
upperneck 24.3465 -11.9072 9.02616
head 12.2772 -5.78364 3.96918
rclavicle -4.65156e-014 6.36111e-015
rhumerus -23.9371 4.45804 -81.8595
rradius 43.0868
rwrist 16.2834
rhand -21.9139 0.0946042
rfingers 7.12502
rthumb 4.49188 -29.8378
lclavicle -4.65156e-014 6.36111e-015
lhumerus -39.7606 19.0851 71.7738
lradius 38.2276
lwrist 6.36593
lhand -20.6546 28.4849
lfingers 7.12502
lthumb 5.7078 -1021.61
rfemur -15.7861 -0.120688 21.6326
rtibia 32.203
rfoot -16.4396 3.87201
rtoes 15.1763
lfemur -25.9262 -6.49814 -10.5717
ltibia 28.5677
lfoot -10.9677 2.47545
ltoes -17.6965
4308
root 3.30663 17.8025 -6.29621 6.34894 -65.7165 -1.55723
lowerback 6.95426 1.86522 2.08435
upperback 2.08932 2.61868 1.92461
thorax -1.73627 1.28199 0.595089
lowerneck -16.5791 -9.56162 -15.2401
upperneck 24.3375 -12.0187 9.14882
head 12.3144 -5.80512 3.9733
rclavicle -7.95139e-015 -2.38542e-014
rhumerus -23.8526 4.822 -81.8995
rradius 43.3238
rwrist 16.4116
rhand -21.8416 0.17236
rfingers 7.12502
rthumb 4.56175 -29.7585
lclavicle -7.95139e-015 -2.38542e-014
lhumerus -39.4192 19.3418 72.6696
lradius 37.6361
lwrist 6.5633
lhand -21.0162 28.5266
lfingers 7.12502
lthumb 5.3587 -1021.56
rfemur -15.6377 -0.34275 21.4224
rtibia 32.1106
rfoot -16.2075 4.29165
rtoes 14.784
lfemur -25.3703 -6.70874 -10.6149
ltibia 29.5019
lfoot -10.9267 1.95495
ltoes -19.6451
4309
root 3.354 17.8092 -6.30169 6.01948 -66.1495 -1.32197
lowerback 6.9901 1.87792 2.04382
upperback 2.11334 2.63234 1.90532
thorax -1.73231 1.28875 0.596018
lowerneck -16.7071 -9.61352 -14.9962
upperneck 24.3834 -12.1138 9.02241
head 12.3435 -5.83607 3.86372
rclavicle 2.48481e-014 -3.33958e-014
rhumerus -23.9212 5.41405 -81.8771
rradius 43.6821
rwrist 16.3029
rhand -21.777 0.127283
rfingers 7.12502
rthumb 4.62414 -29.8022
lclavicle 2.48481e-014 -3.33958e-014
lhumerus -39.0893 19.3609 73.6938
lradius 37.167
lwrist 6.8603
lhand -21.2548 28.964
lfingers 7.12502
lthumb 5.12829 -1021.12
rfemur -15.6344 -0.272934 21.1662
rtibia 32.0401
rfoot -15.921 4.84811
rtoes 15.2551
lfemur -24.8258 -6.63648 -10.6841
ltibia 30.4467
lfoot -11.0208 1.4828
ltoes -20.6897
4310
root 3.40783 17.8168 -6.30515 5.4211 -66.5197 -0.607777
lowerback 6.92715 1.86043 1.90302
upperback 2.05799 2.59933 1.81199
thorax -1.75657 1.27323 0.582395
lowerneck -16.8756 -9.66343 -14.8876
upperneck 24.5167 -12.213 9.03575
head 12.4365 -5.8646 3.82813
rclavicle -3.20043e-014 -6.36111e-015
rhumerus -23.9962 5.73687 -81.8874
rradius 43.9736
rwrist 16.4237
rhand -22.0321 0.00262823
rfingers 7.12502
rthumb 4.37781 -29.9321
lclavicle -3.20043e-014 -6.36111e-015
lhumerus -38.8162 19.3679 74.6598
lradius 36.8481
lwrist 6.9717
lhand -21.2441 29.7431
lfingers 7.12502
lthumb 5.13862 -1020.34
rfemur -15.8369 -0.36115 20.7019
rtibia 31.9525
rfoot -15.6042 5.42113
rtoes 15.7639
lfemur -24.5054 -6.59219 -10.9416
ltibia 31.4327
lfoot -11.2161 1.05617
ltoes -20.5749
4311
root 3.45921 17.8225 -6.30839 4.84238 -66.9457 0.069062
lowerback 6.8667 1.85011 1.72497
upperback 2.00871 2.57339 1.73215
thorax -1.77816 1.26127 0.602916
lowerneck -17.0212 -9.67187 -14.8287
upperneck 24.5864 -12.2805 9.19977
head 12.5107 -5.86651 3.86492
rclavicle -8.74653e-015 -1.59028e-015
rhumerus -24.0051 5.84047 -81.9257
rradius 44.2195
rwrist 16.6857
rhand -22.1568 0.00576874
rfingers 7.12502
rthumb 4.25733 -29.9314
lclavicle -8.74653e-015 -1.59028e-015
lhumerus -38.5095 19.268 75.622
lradius 36.5671
lwrist 6.89998
lhand -21.2132 30.4879
lfingers 7.12502
lthumb 5.16848 -1019.6
rfemur -16.0404 -0.616751 20.3026
rtibia 31.8438
rfoot -15.4064 6.02673
rtoes 14.7092
lfemur -24.151 -6.44025 -11.1814
ltibia 32.431
lfoot -11.4426 0.644206
ltoes -22.449
